<svg aria-hidden="true" style="position: absolute; width: 0; height: 0; overflow: hidden;" version="1.1" xmlns="http://www.w3.org/2000/svg" xmlns:xlink="http://www.w3.org/1999/xlink">
<defs>
<symbol id="icon-heroicons-solid_menu-1" viewBox="0 0 32 32">
<path d="M4.8 8c0-0.884 0.716-1.6 1.6-1.6h19.2c0.884 0 1.6 0.716 1.6 1.6s-0.716 1.6-1.6 1.6h-19.2c-0.884 0-1.6-0.716-1.6-1.6v0zM4.8 16c0-0.884 0.716-1.6 1.6-1.6h19.2c0.884 0 1.6 0.716 1.6 1.6s-0.716 1.6-1.6 1.6h-19.2c-0.884 0-1.6-0.716-1.6-1.6v0z"></path>
<path d="M6.4 23.067h19.2c0.516 0 0.934 0.418 0.934 0.934s-0.418 0.934-0.934 0.934v0h-19.2c-0.513-0.005-0.927-0.421-0.927-0.935 0-0.448 0.315-0.823 0.736-0.914l0.006-0.001z"></path>
<path fill="none" stroke="#000" style="stroke: var(--color1, #000)" stroke-linejoin="miter" stroke-linecap="butt" stroke-miterlimit="4" stroke-width="1.3333" d="M6.4 23.067h19.2c0.516 0 0.934 0.418 0.934 0.934s-0.418 0.934-0.934 0.934v0h-19.2c-0.513-0.005-0.927-0.421-0.927-0.935 0-0.448 0.315-0.823 0.736-0.914l0.006-0.001z"></path>
</symbol>
</defs>
</svg>
